<?xml version="1.0" standalone="no"?><!DOCTYPE svg PUBLIC "-//W3C//DTD SVG 1.1//EN" "http://www.w3.org/Graphics/SVG/1.1/DTD/svg11.dtd"><svg t="1616566988273" class="icon" viewBox="0 0 1024 1024" version="1.1" xmlns="http://www.w3.org/2000/svg" p-id="2051" xmlns:xlink="http://www.w3.org/1999/xlink" width="128" height="128"><defs><style type="text/css"></style></defs><path d="M562.749848 685.854607 562.749848 410.080749c0-32.137954 50.206472-32.137954 50.206472 0l0 275.773857C612.95632 717.995631 562.749848 717.995631 562.749848 685.854607L562.749848 685.854607 562.749848 685.854607M412.083359 685.854607 412.083359 410.080749c0-32.137954 50.231031-32.137954 50.231031 0l0 275.773857C462.313368 717.995631 412.083359 717.995631 412.083359 685.854607L412.083359 685.854607 412.083359 685.854607M838.95861 284.72267 713.416336 284.72267l0-50.1594c0-41.527812-33.760918-75.197656-74.55502-75.197656L386.977565 159.365614c-41.594327 0-75.331709 33.670867-75.331709 75.197656l0 50.1594L186.103582 284.72267c-32.185027 0-32.185027 50.116421 0 50.116421l652.855028 0C871.120101 334.839091 871.120101 284.72267 838.95861 284.72267L838.95861 284.72267 838.95861 284.72267M361.875864 234.56327c0-13.319353 11.762905-25.082258 25.101701-25.082258l251.883751 0c13.33982 0 24.325012 10.190083 24.325012 25.082258l0 50.1594L361.875864 284.72267 361.875864 234.56327 361.875864 234.56327M688.293145 861.352643 336.747557 861.352643c-41.570791 0-75.308173-33.667797-75.308173-75.194586L261.439384 410.080749c0-14.892175 11.762905-25.081235 25.101701-25.081235 13.341866 0 25.104771 10.18906 25.104771 25.081235l0 376.077308c0 13.292748 11.786441 25.054629 25.101701 25.054629l351.544565 0c13.338796 0 25.125237-11.761881 25.125237-25.054629L713.417359 410.856415c0-32.914644 50.206472-32.914644 50.206472 0l0 375.300618C763.624854 827.684846 729.886449 861.352643 688.293145 861.352643L688.293145 861.352643M688.293145 861.352643 688.293145 861.352643z" p-id="2052" fill="#515151"></path></svg>