<?xml version="1.0" standalone="no"?><!DOCTYPE svg PUBLIC "-//W3C//DTD SVG 1.1//EN" "http://www.w3.org/Graphics/SVG/1.1/DTD/svg11.dtd"><svg t="1615357789629" class="icon" viewBox="0 0 1024 1024" version="1.1" xmlns="http://www.w3.org/2000/svg" p-id="4281" xmlns:xlink="http://www.w3.org/1999/xlink" width="128" height="128"><defs><style type="text/css"></style></defs><path d="M492.153 746.36c0 55.157-2.533 110.467 0.79 165.422 2.73 45.146-33.139 69.831-77.019 46.976-48.849-25.444-97.506-51.258-146.218-76.966-31.736-16.749-63.558-33.344-95.093-50.466-39.898-21.663-60.946-52.658-59.938-100.943 2.215-106.089 2.767-212.315-0.314-318.36-1.271-43.752 26.984-77.138 80.902-48.936 77.645 40.612 154.877 82.016 232.194 123.252 10.275 5.48 20.838 10.94 29.84 18.183 23.358 18.792 35.681 42.752 35.133 73.867-0.984 55.974-0.277 111.979-0.277 167.971z" fill="#8088ac" p-id="4282"></path><path d="M541.201 743.872c-0.03-55.148 1.013-110.323-0.39-165.436-0.968-37.989 16.272-65.073 47.342-82.088 84.181-46.104 168.925-91.245 254.432-134.834 44.887-22.883 75.257-2.282 75.288 47.913 0.065 106.119-1.789 212.281 0.796 318.337 1.26 51.648-21.845 83.424-64.506 105.883-76.076 40.05-152.058 80.283-228.183 120.242-8.068 4.235-16.587 7.964-25.306 10.551-33.945 10.071-58.916-7.485-59.276-42.591-0.609-59.321-0.167-118.651-0.197-177.977z" fill="#8088ac" p-id="4283"></path><path d="M513.478 65.436c20.9-2.081 40.208 5.654 59.086 14.979 87.563 43.25 175.166 86.423 262.64 129.856 36.719 18.232 47.896 42.089 33.459 68.579-5.999 11.007-15.709 16.843-26.231 22.222-90.684 46.346-181.555 92.332-271.887 139.354-41.997 21.861-83.254 21.243-124.811 0.671-87.537-43.333-174.947-86.921-262.31-130.604-19.259-9.63-36.887-22.062-37.454-46.027-0.551-23.294 16.391-34.985 34.938-44.535 90.534-46.616 180.918-93.525 271.633-139.785 18.611-9.491 38.528-16.172 60.937-14.71z" fill="#8088ac" p-id="4284"></path></svg>