<?xml version="1.0" standalone="no"?><!DOCTYPE svg PUBLIC "-//W3C//DTD SVG 1.1//EN" "http://www.w3.org/Graphics/SVG/1.1/DTD/svg11.dtd"><svg t="1615443726958" class="icon" viewBox="0 0 1024 1024" version="1.1" xmlns="http://www.w3.org/2000/svg" p-id="13765" xmlns:xlink="http://www.w3.org/1999/xlink" width="128" height="128"><defs><style type="text/css"></style></defs><path d="M870 178.2c10.6 0 20.6 4.2 28.2 11.8 7.6 7.6 11.8 17.6 11.8 28.2v587.6c0 10.6-4.2 20.6-11.8 28.2-7.6 7.6-17.6 11.8-28.2 11.8H154c-10.6 0-20.6-4.2-28.2-11.8-7.6-7.6-11.8-17.6-11.8-28.2V218.2c0-10.6 4.2-20.6 11.8-28.2 7.6-7.6 17.6-11.8 28.2-11.8h716m0-50H154c-49.5 0-90 40.5-90 90v587.6c0 49.5 40.5 90 90 90h716c49.5 0 90-40.5 90-90V218.2c0-49.5-40.5-90-90-90z" p-id="13766" fill="#8a8a8a"></path><path d="M432.9 640.5l-73.5-101.8c-9.7-13.5-25.5-13.5-35.3 0L188.5 726.3c-9.7 13.5-3.9 24.4 13 24.4h621.2c16.9 0 22.6-10.9 12.8-24.4L620.6 432.6c-9.9-13.5-25.8-13.5-35.6 0L432.9 640.5zM273.3 333c0 33 26.7 59.7 59.7 59.7s59.7-26.7 59.7-59.7-26.7-59.7-59.7-59.7-59.7 26.7-59.7 59.7z" p-id="13767" fill="#8a8a8a"></path></svg>